# xmcd
# 
# Track frame offsets:
#     150
#     21100
#     39942
#     60752
#     77255
#     102365
#     119505
#     140182
#     156665
#     176845
#     195412
#     217665
# 
# Disc length: 3170
# 
# Revision: 3
# Processed by: cddbd v1.5.2PL0 Copyright (c) Steve Scherf et al.
# Submitted via: BonkEnc v1.0.6
# 
DISCID=990c600c
DTITLE=Cyndi Lauper - Hat Full of Stars
DYEAR=0
DGENRE=
TTITLE0=That's what I think
TTITLE1=Product of misery
TTITLE2=Who let in the rain
TTITLE3=Lies
TTITLE4=Broken glass
TTITLE5=Sally's Pigeons
TTITLE6=Feels like Christmas
TTITLE7=Dear John,
TTITLE8=Like I used to
TTITLE9=Someone like me
TTITLE10=A part hate
TTITLE11=Hat full of stars
EXTD=1993
EXTT0=
EXTT1=
EXTT2=
EXTT3=
EXTT4=
EXTT5=
EXTT6=
EXTT7=
EXTT8=
EXTT9=
EXTT10=
EXTT11=
PLAYORDER=
